<svg width="332" height="332" viewBox="0 0 332 332" fill="none" xmlns="http://www.w3.org/2000/svg">
<rect width="332" height="332" rx="40" fill="white"/>
<path d="M191 16C201.182 16 209.586 23.6086 210.838 33.4502L302 289.5L301.924 289.513C302.621 291.547 303 293.729 303 296C303 306.541 294.845 315.176 284.5 315.943V316H248L237.803 288.128C234.918 280.244 227.416 275 219.021 275H110.979C102.584 275 95.082 280.244 92.1973 288.128L82 316H48.5V315.993C48.3338 315.997 48.1672 316 48 316C36.9543 316 28 307.046 28 296C28 293.729 28.3787 291.546 29.0762 289.512L29 289.5L121 32.5L121.328 32.376C123.033 23.0604 131.192 16 141 16H191ZM165 94C136.833 94 114 116.833 114 145C114 166.527 127.337 184.938 146.199 192.422V274.9H178.5V266.851L189.199 257.488V257.3L177.149 245.25L189.199 233.2V233L177.149 220.95L189.199 208.9V189.902C205.157 181.284 216 164.409 216 145C216 116.833 193.167 94 165 94ZM165 125C176.046 125 185 133.954 185 145C185 156.046 176.046 165 165 165C153.954 165 145 156.046 145 145C145 133.954 153.954 125 165 125Z" fill="#1A0808"/>
</svg>
