<svg width="307" height="332" viewBox="0 0 307 332" fill="none" xmlns="http://www.w3.org/2000/svg">
<path d="M179 16C189.182 16 197.586 23.6086 198.838 33.4502L290 289.5L289.924 289.513C290.621 291.547 291 293.729 291 296C291 306.541 282.845 315.176 272.5 315.943V316H236L225.803 288.128C222.918 280.244 215.416 275 207.021 275H98.9795C90.5839 275 83.082 280.244 80.1973 288.128L70 316H36.5V315.993C36.3338 315.997 36.1672 316 36 316C24.9543 316 16 307.046 16 296C16 293.729 16.3787 291.546 17.0762 289.512L17 289.5L109 32.5L109.328 32.376C111.033 23.0604 119.192 16 129 16H179ZM153 94C124.833 94 102 116.833 102 145C102 166.527 115.337 184.938 134.199 192.422V274.9H166.5V266.851L177.199 257.488V257.3L165.149 245.25L177.199 233.2V233L165.149 220.95L177.199 208.9V189.902C193.157 181.284 204 164.409 204 145C204 116.833 181.167 94 153 94ZM153 125C164.046 125 173 133.954 173 145C173 156.046 164.046 165 153 165C141.954 165 133 156.046 133 145C133 133.954 141.954 125 153 125Z" fill="#1A1A1A"/>
</svg>
