<svg width="195" height="102" viewBox="0 0 195 102" fill="none" xmlns="http://www.w3.org/2000/svg">
<path d="M194.501 51C194.501 79.1665 171.667 102 143.501 102C124.092 102 107.217 91.1572 98.5986 75.1992L79.6006 75.1992L67.5508 63.1494L55.501 75.1992L55.3008 75.1992L43.251 63.1494L31.2012 75.1992L31.0127 75.1992L21.6504 64.5L13.6006 64.5L13.6006 64.4492L-2.14181e-06 48.999L13.6006 32.1992L96.0791 32.1992C103.563 13.3374 121.974 -3.17024e-06 143.501 -2.22928e-06C171.667 -9.98083e-07 194.501 22.8335 194.501 51ZM163.501 51C163.501 39.9543 154.547 31 143.501 31C132.455 31 123.501 39.9543 123.501 51C123.501 62.0457 132.455 71 143.501 71C154.547 71 163.501 62.0457 163.501 51Z" fill="#101010"/>
</svg>
