<svg width="1053" height="332" viewBox="0 0 1053 332" fill="none" xmlns="http://www.w3.org/2000/svg">
<path d="M179 16C189.182 16 197.586 23.6086 198.838 33.4502L290 289.5L289.924 289.513C290.621 291.547 291 293.729 291 296C291 306.541 282.845 315.176 272.5 315.943V316H236L225.803 288.128C222.918 280.244 215.416 275 207.021 275H98.9795C90.5839 275 83.082 280.244 80.1973 288.128L70 316H36.5V315.993C36.3338 315.997 36.1672 316 36 316C24.9543 316 16 307.046 16 296C16 293.729 16.3787 291.546 17.0762 289.512L17 289.5L109 32.5L109.328 32.376C111.033 23.0604 119.192 16 129 16H179ZM153 94C124.833 94 102 116.833 102 145C102 166.527 115.337 184.938 134.199 192.422V274.9H166.5V266.851L177.199 257.488V257.3L165.149 245.25L177.199 233.2V233L165.149 220.95L177.199 208.9V189.902C193.157 181.284 204 164.409 204 145C204 116.833 181.167 94 153 94ZM153 125C164.046 125 173 133.954 173 145C173 156.046 164.046 165 153 165C141.954 165 133 156.046 133 145C133 133.954 141.954 125 153 125Z" fill="#1A1A1A"/>
<path d="M407.58 87.2V165.08L466.32 87.2H508.34L455.1 156.72L508.78 250H467.64L431.78 187.08L407.58 218.76V250H371.94V87.2H407.58ZM565.968 252.86C532.748 252.86 508.988 228.66 508.988 194.78C508.988 160.46 532.088 136.48 565.308 136.48C599.848 136.48 621.408 159.14 621.408 195V203.58L541.548 204.02C543.528 218.54 551.668 225.36 566.628 225.36C579.388 225.36 588.408 220.74 590.828 212.82H621.848C617.888 237.24 596.108 252.86 565.968 252.86ZM565.528 163.98C552.108 163.98 544.628 169.92 541.988 183.12H587.748C587.748 171.46 579.168 163.98 565.528 163.98ZM628.374 302.8V274.42H647.074C658.514 274.42 663.354 270.9 667.754 259.02L669.734 253.74L625.514 140H661.814L685.794 210.62L712.414 140H747.614L691.734 273.98C682.494 296.42 670.174 305.88 650.814 305.88C642.674 305.88 634.974 304.78 628.374 302.8ZM921.172 250H883.992L942.072 87.2H976.832L1034.69 250H996.852L985.412 215.68H932.832L921.172 250ZM954.832 151L943.172 185.76H975.292L963.632 151C961.872 145.5 959.892 139.12 959.232 135.16C958.572 138.9 956.812 145.06 954.832 151Z" fill="black"/>
<path d="M875.309 249.56L759.149 250V223.6L812.829 178.94C830.209 164.64 837.469 154.52 837.469 141.1C837.469 124.6 829.329 115.8 814.809 115.8C799.629 115.8 790.829 126.14 790.829 144.4H755.409C755.409 107.88 778.729 84.12 814.589 84.12C851.769 84.12 873.989 104.14 873.989 138.9C873.989 161.12 860.569 179.16 840.329 196.1L815.909 216.56H875.309V249.56Z" fill="#898989"/>
</svg>
