{"asset":{"version":"2.0","generator":"THREE.GLTFExporter r175"},"scenes":[{"name":"AuxScene","nodes":[6]}],"scene":0,"nodes":[{"mesh":0},{"mesh":1},{"matrix":[0.2357022603955158,0,-0.23570226039551584,0,0,-0.3333333333333333,0,0,0.23570226039551584,0,0.2357022603955158,0,0,0,0,1],"children":[0,1]},{"children":[2]},{"matrix":[1,0,0,0,0,1,0,0,0,0,1,0,-34.509827168339235,49.935248806296535,30.031484136530743,1],"children":[3]},{"children":[4]},{"children":[5]}],"bufferViews":[{"buffer":0,"byteOffset":0,"byteLength":79776,"target":34962,"byteStride":12},{"buffer":0,"byteOffset":79776,"byteLength":53184,"target":34962,"byteStride":8},{"buffer":0,"byteOffset":132960,"byteLength":79776,"target":34962,"byteStride":12},{"buffer":0,"byteOffset":212736,"byteLength":22896,"target":34962,"byteStride":12},{"buffer":0,"byteOffset":235632,"byteLength":15264,"target":34962,"byteStride":8},{"buffer":0,"byteOffset":250896,"byteLength":22896,"target":34962,"byteStride":12}],"buffers":[{"byteLength":273792,"uri":"data:application/octet-stream;base64,"}],"accessors":[{"bufferView":0,"componentType":5126,"count":6648,"max":[273.81561279296875,299.6029968261719,19.600000381469727],"min":[0.009980549104511738,0.008496011607348919,-0.6000000238418579],"type":"VEC3"},{"bufferView":1,"componentType":5126,"count":6648,"max":[299.6029968261719,299.6029968261719],"min":[0.009980549104511738,-18.600000381469727],"type":"VEC2"},{"bufferView":2,"componentType":5126,"count":6648,"max":[1,1,1],"min":[-1,-1,-1],"type":"VEC3"},{"bufferView":3,"componentType":5126,"count":1908,"max":[156,148,19.600000381469727],"min":[116,108,-0.6000000238418579],"type":"VEC3"},{"bufferView":4,"componentType":5126,"count":1908,"max":[156,148],"min":[113.85774993896484,-18.600000381469727],"type":"VEC2"},{"bufferView":5,"componentType":5126,"count":1908,"max":[0.9949578642845154,0.9949560165405273,1],"min":[-0.9949560165405273,-0.994957685470581,-1],"type":"VEC3"}],"materials":[{"pbrMetallicRoughness":{"baseColorFactor":[0.6375968739867731,0.6653872982754769,0.7083757798856457,1],"metallicFactor":0,"roughnessFactor":0.9},"doubleSided":true}],"meshes":[{"primitives":[{"mode":4,"attributes":{"POSITION":0,"TEXCOORD_0":1,"NORMAL":2},"material":0}]},{"primitives":[{"mode":4,"attributes":{"POSITION":3,"TEXCOORD_0":4,"NORMAL":5},"material":0}]}]}