{"asset":{"version":"2.0","generator":"THREE.GLTFExporter r175"},"scenes":[{"name":"AuxScene","nodes":[7]}],"scene":0,"nodes":[{"mesh":0},{"mesh":1},{"mesh":2},{"matrix":[0.2357022603955158,0,-0.23570226039551584,0,0,-0.3333333333333333,0,0,0.23570226039551584,0,0.2357022603955158,0,0,0,0,1],"children":[0,1,2]},{"children":[3]},{"matrix":[1,0,0,0,0,1,0,0,0,0,1,0,-34.648232320287676,50,30.16988928847918,1],"children":[4]},{"children":[5]},{"children":[6]}],"bufferViews":[{"buffer":0,"byteOffset":0,"byteLength":92016,"target":34962,"byteStride":12},{"buffer":0,"byteOffset":92016,"byteLength":61344,"target":34962,"byteStride":8},{"buffer":0,"byteOffset":153360,"byteLength":92016,"target":34962,"byteStride":12},{"buffer":0,"byteOffset":245376,"byteLength":2736,"target":34962,"byteStride":12},{"buffer":0,"byteOffset":248112,"byteLength":1824,"target":34962,"byteStride":8},{"buffer":0,"byteOffset":249936,"byteLength":2736,"target":34962,"byteStride":12},{"buffer":0,"byteOffset":252672,"byteLength":22896,"target":34962,"byteStride":12},{"buffer":0,"byteOffset":275568,"byteLength":15264,"target":34962,"byteStride":8},{"buffer":0,"byteOffset":290832,"byteLength":22896,"target":34962,"byteStride":12}],"buffers":[{"byteLength":313728,"uri":"data:application/octet-stream;base64,"}],"accessors":[{"bufferView":0,"componentType":5126,"count":7668,"max":[275,300,19.600000381469727],"min":[0,0,-0.6000000238418579],"type":"VEC3"},{"bufferView":1,"componentType":5126,"count":7668,"max":[300,300],"min":[0,-18.600000381469727],"type":"VEC2"},{"bufferView":2,"componentType":5126,"count":7668,"max":[1,1,1],"min":[-1,-1,-1],"type":"VEC3"},{"bufferView":3,"componentType":5126,"count":228,"max":[150.5,259.0010070800781,19.600000381469727],"min":[118.1989974975586,259,-0.6000000238418579],"type":"VEC3"},{"bufferView":4,"componentType":5126,"count":228,"max":[259.0010070800781,259.0010070800781],"min":[118.1989974975586,-18.600000381469727],"type":"VEC2"},{"bufferView":5,"componentType":5126,"count":228,"max":[1,1,1],"min":[-1,-1,-1],"type":"VEC3"},{"bufferView":6,"componentType":5126,"count":1908,"max":[157,149,19.600000381469727],"min":[117,109,-0.6000000238418579],"type":"VEC3"},{"bufferView":7,"componentType":5126,"count":1908,"max":[157,149],"min":[114.85774993896484,-18.600000381469727],"type":"VEC2"},{"bufferView":8,"componentType":5126,"count":1908,"max":[0.9949578642845154,0.9949578642845154,1],"min":[-0.994957685470581,-0.994957685470581,-1],"type":"VEC3"}],"materials":[{"pbrMetallicRoughness":{"baseColorFactor":[0.6375968739867731,0.6653872982754769,0.7083757798856457,1],"metallicFactor":0,"roughnessFactor":0.9},"doubleSided":true}],"meshes":[{"primitives":[{"mode":4,"attributes":{"POSITION":0,"TEXCOORD_0":1,"NORMAL":2},"material":0}]},{"primitives":[{"mode":4,"attributes":{"POSITION":3,"TEXCOORD_0":4,"NORMAL":5},"material":0}]},{"primitives":[{"mode":4,"attributes":{"POSITION":6,"TEXCOORD_0":7,"NORMAL":8},"material":0}]}]}