<svg width="126" height="126" viewBox="0 0 126 126" fill="none" xmlns="http://www.w3.org/2000/svg">
<path d="M63 0C97.7939 0 126 28.2061 126 63C126 97.7939 97.7939 126 63 126C28.2061 126 0 97.7939 0 63C0 28.2061 28.2061 0 63 0ZM97 75.999C94.9994 73.9999 87.9996 77.9896 80.5 78.999C73.7198 79.9115 63.0556 80.496 63 80.499C62.9491 80.4962 52.2817 79.9117 45.5 78.999C38.0004 77.9896 31.0006 73.9999 29 75.999C26.7361 78.2627 29.4344 88.6111 39.5 96.999C45.5002 101.999 56.9999 103.999 63 104.499C69.0001 103.999 80.4999 101.999 86.5 96.999C96.5656 88.6112 99.2638 78.2628 97 75.999ZM40.5 40C35.8057 40.0001 32 43.8056 32 48.5C32 53.1944 35.8057 56.9999 40.5 57C45.1944 57 49 53.1944 49 48.5C49 43.8056 45.1944 40 40.5 40ZM85.5 40C80.8057 40.0001 77 43.8056 77 48.5C77 53.1944 80.8057 56.9999 85.5 57C90.1944 57 94 53.1944 94 48.5C94 43.8056 90.1944 40 85.5 40Z" fill="#303030"/>
</svg>
