<svg width="360" height="360" viewBox="0 0 360 360" fill="none" xmlns="http://www.w3.org/2000/svg">
<rect x="26" y="78" width="312" height="217" fill="#E8E8E8"/>
<path d="M312 42C338.51 42 360 63.4903 360 90V270C360 296.51 338.51 318 312 318H48C21.4903 318 0 296.51 0 270V90C3.60272e-06 63.4903 21.4903 42 48 42H312ZM106 92C50 92 50 147.157 50 158.689V196.297C50 210.338 50.0006 268 106 268C160.999 268 161 209.343 161 201.319H310V168.211H274V135H241V168.211H161C161 149.157 162 92 106 92ZM106 119C128 119 128.5 147 128.5 153L128 211C128 216 128 242.5 106 242.5C84 242.5 83 219 83 211V153C83 147 83 119 106 119Z" fill="#1A1A1A"/>
</svg>
