<svg width="793" height="324" viewBox="0 0 793 324" fill="none" xmlns="http://www.w3.org/2000/svg">
<path d="M745 30C771.51 30 793 51.4903 793 78V258C793 284.51 771.51 306 745 306H481C454.49 306 433 284.51 433 258V78C433 51.4903 454.49 30 481 30H745ZM539 80C483 80 483 135.157 483 146.689V184.297C483 198.338 483.001 256 539 256C593.999 256 594 197.343 594 189.319H743V156.211H707V123H674V156.211H594C594 137.157 595 80 539 80ZM539 107C561 107 561.5 135 561.5 141L561 199C561 204 561 230.5 539 230.5C517 230.5 516 207 516 199V141C516 135 516 107 539 107Z" fill="black"/>
<path d="M44.64 254H15.6V75.44H44.64V185.12L90.72 135.44H127.44L82.32 182.48L126.48 254H92.88L61.92 204.08L44.64 222.08V254ZM197.91 257.12C162.63 257.12 137.91 231.44 137.91 194.72C137.91 157.52 162.15 131.84 196.95 131.84C232.47 131.84 255.03 155.6 255.03 192.56V201.44L165.75 201.68C167.91 222.56 178.95 233.12 198.39 233.12C214.47 233.12 225.03 226.88 228.39 215.6H255.51C250.47 241.52 228.87 257.12 197.91 257.12ZM197.19 155.84C179.91 155.84 169.35 165.2 166.47 182.96H225.99C225.99 166.64 214.71 155.84 197.19 155.84ZM270.159 308.96V284.48H287.679C299.199 284.48 306.399 281.84 311.439 267.92L314.799 259.04L267.039 135.44H297.999L328.479 221.84L360.639 135.44H390.879L332.799 280.4C323.919 302.48 311.439 311.6 291.999 311.6C283.839 311.6 276.639 310.64 270.159 308.96Z" fill="black"/>
</svg>
